<svg width="16" height="16" viewBox="0 0 16 16" fill="none" xmlns="http://www.w3.org/2000/svg">
<g id="answers">
<path id="Vector" d="M8.25 13.5C9.28835 13.5 10.3034 13.1921 11.1667 12.6152C12.0301 12.0383 12.703 11.2184 13.1004 10.2591C13.4977 9.29978 13.6017 8.24418 13.3991 7.22578C13.1965 6.20738 12.6965 5.27192 11.9623 4.53769C11.2281 3.80347 10.2926 3.30345 9.27422 3.10088C8.25582 2.89831 7.20022 3.00227 6.24091 3.39963C5.2816 3.79699 4.46166 4.4699 3.88478 5.33326C3.30791 6.19662 3 7.21165 3 8.25C3 9.118 3.21 9.93642 3.58333 10.6574L3 13.5L5.84258 12.9167C6.56358 13.29 7.38258 13.5 8.25 13.5Z" stroke="#1DA1F2" stroke-linecap="round" stroke-linejoin="round"/>
</g>
</svg>
